<svg width="30" height="24" viewBox="0 0 30 24" fill="none" xmlns="http://www.w3.org/2000/svg">
<g clip-path="url(#clip0)">
<path fill-rule="evenodd" clip-rule="evenodd" d="M22 4H8L8 20H22V4ZM8 2C6.89543 2 6 2.89543 6 4V20C6 21.1046 6.89543 22 8 22H22C23.1046 22 24 21.1046 24 20V4C24 2.89543 23.1046 2 22 2H8Z" fill="#1DA775"/>
<rect x="7.99951" y="6" width="14" height="2" fill="#1DA775"/>
<ellipse cx="14.9995" cy="11" rx="1" ry="0.999998" fill="#1DA775"/>
<ellipse cx="19" cy="11" rx="1" ry="0.999998" fill="#1DA775"/>
<ellipse cx="11.0005" cy="14" rx="1" ry="0.999998" fill="#1DA775"/>
<ellipse cx="14.9995" cy="14" rx="1" ry="0.999998" fill="#1DA775"/>
<ellipse cx="19" cy="14" rx="1" ry="0.999998" fill="#1DA775"/>
<ellipse cx="11.0005" cy="17" rx="1" ry="0.999999" fill="#1DA775"/>
<ellipse cx="14.9995" cy="17" rx="1" ry="0.999999" fill="#1DA775"/>
<rect x="12" width="5" height="2" rx="0.999999" transform="rotate(90 12 0)" fill="#1DA775"/>
<rect x="19.9995" width="5" height="2" rx="0.999999" transform="rotate(90 19.9995 0)" fill="#1DA775"/>
</g>
<defs>
<clipPath id="clip0">
<rect width="30" height="24" fill="white"/>
</clipPath>
</defs>
</svg>
