<svg width="24" height="24" viewBox="0 0 24 24" fill="none" xmlns="http://www.w3.org/2000/svg">
<g clip-path="url(#clip0)">
<path d="M8.29995 21.9C5.69995 21.9 2.99995 21.1999 0.599946 19.7999C0.199946 19.5999 -5.37112e-05 19.1 0.0999463 18.7C0.199946 18.3 0.599946 18 0.999946 18C2.69995 18.1 4.39995 17.7 5.89995 17C2.19995 14.7 1.19995 11.5 1.09995 8.99995C0.999946 6.09995 1.99995 3.69995 2.09995 3.59995C2.19995 3.29995 2.49995 2.99995 2.89995 2.99995C3.29995 2.99995 3.59995 3.09995 3.79995 3.39995C5.49995 5.79995 8.09995 7.29995 10.9999 7.49995C10.9999 5.89995 11.6999 4.39995 12.8999 3.29995C14.9999 1.49995 18.0999 1.49995 20.1999 3.29995C20.9999 2.99995 21.7999 2.59995 22.4999 2.09995C22.7999 1.89995 23.2999 1.89995 23.5999 2.09995C23.8999 2.29995 24.0999 2.79995 23.9999 3.19995C23.6999 4.59995 22.9999 5.89995 21.9999 6.99995C21.9999 7.19995 21.9999 7.29995 21.9999 7.49995C21.9999 13 19.5999 17.6 15.2999 20C13.1999 21.2999 10.7999 21.9 8.29995 21.9ZM4.99995 19.5C8.29995 20.2999 11.5999 19.9 14.3999 18.2999C17.9999 16.1999 20.0999 12.2 20.0999 7.49995C20.0999 7.29995 20.0999 7.09995 19.9999 6.89995C19.8999 6.59995 19.9999 6.19995 20.2999 5.99995C20.4999 5.79995 20.6999 5.49995 20.8999 5.29995C20.6999 5.39995 20.3999 5.49995 20.1999 5.49995C19.7999 5.59995 19.3999 5.49995 19.1999 5.19995C17.8999 3.79995 15.6999 3.59995 14.2999 4.89995C13.3999 5.49995 12.9999 6.49995 12.9999 7.49995V8.49995C12.9999 8.99995 12.5999 9.49995 11.9999 9.49995C8.69995 9.59995 5.59995 8.29995 3.39995 5.99995C2.79995 8.59995 2.59995 13.5 8.39995 16C8.69995 16.2 8.99995 16.5 8.99995 16.9C8.99995 17.3 8.89995 17.6 8.59995 17.8C7.39995 18.6 6.19995 19.2 4.99995 19.5Z" fill="#BDBDBD"/>
</g>
<defs>
<clipPath id="clip0">
<rect width="24" height="24" fill="white"/>
</clipPath>
</defs>
</svg>
