<svg width="48" height="48" viewBox="0 0 48 48" fill="none" xmlns="http://www.w3.org/2000/svg">
<circle cx="24" cy="24" r="24" fill="url(#paint0_linear)"/>
<path d="M29.6586 10H18.3414C13.7419 10 10 13.7419 10 18.3414V29.6586C10 34.2581 13.7419 38 18.3414 38H29.6586C34.2581 38 38 34.2581 38 29.6586V18.3414C38 13.7419 34.258 10 29.6586 10ZM35.1832 29.6586C35.1832 32.7097 32.7097 35.1832 29.6586 35.1832H18.3414C15.2903 35.1832 12.8168 32.7097 12.8168 29.6586V18.3414C12.8168 15.2902 15.2903 12.8168 18.3414 12.8168H29.6586C32.7097 12.8168 35.1832 15.2902 35.1832 18.3414V29.6586Z" fill="#FAFAFA"/>
<path d="M24.003 16.7583C20.0098 16.7583 16.7612 20.007 16.7612 24C16.7612 27.9931 20.0098 31.2418 24.003 31.2418C27.9961 31.2418 31.2448 27.9932 31.2448 24C31.2448 20.0069 27.9961 16.7583 24.003 16.7583ZM24.003 28.4251C21.5591 28.4251 19.578 26.444 19.578 24.0001C19.578 21.5562 21.5591 19.5751 24.003 19.5751C26.4468 19.5751 28.428 21.5562 28.428 24.0001C28.428 26.4439 26.4468 28.4251 24.003 28.4251Z" fill="#FAFAFA"/>
<path d="M31.2541 18.548C32.2125 18.548 32.9894 17.771 32.9894 16.8127C32.9894 15.8543 32.2125 15.0774 31.2541 15.0774C30.2958 15.0774 29.5189 15.8543 29.5189 16.8127C29.5189 17.771 30.2958 18.548 31.2541 18.548Z" fill="#FAFAFA"/>
<defs>
<linearGradient id="paint0_linear" x1="24" y1="47.8603" x2="24" y2="0.372824" gradientUnits="userSpaceOnUse">
<stop stop-color="#E09B3D"/>
<stop offset="0.3" stop-color="#C74C4D"/>
<stop offset="0.6" stop-color="#C21975"/>
<stop offset="1" stop-color="#7024C4"/>
</linearGradient>
</defs>
</svg>
