<svg width="48" height="48" viewBox="0 0 48 48" fill="none" xmlns="http://www.w3.org/2000/svg">
<circle cx="24" cy="24" r="24" fill="#475993"/>
<path d="M30.8201 10.0058L27.1263 10C22.9765 10 20.2947 12.7047 20.2947 16.8908V20.068H16.5808C16.2599 20.068 16 20.3237 16 20.6392V25.2425C16 25.558 16.2602 25.8134 16.5808 25.8134H20.2947V37.4291C20.2947 37.7445 20.5546 38 20.8755 38H25.7211C26.042 38 26.3019 37.7442 26.3019 37.4291V25.8134H30.6444C30.9653 25.8134 31.2252 25.558 31.2252 25.2425L31.2269 20.6392C31.2269 20.4877 31.1656 20.3427 31.0568 20.2355C30.9481 20.1283 30.7999 20.068 30.6458 20.068H26.3019V17.3747C26.3019 16.0802 26.6157 15.423 28.3312 15.423L30.8195 15.4221C31.1401 15.4221 31.4 15.1664 31.4 14.8512V10.5768C31.4 10.2619 31.1404 10.0064 30.8201 10.0058Z" fill="white"/>
</svg>
