<svg width="48" height="48" viewBox="0 0 48 48" fill="none" xmlns="http://www.w3.org/2000/svg">
<circle cx="24" cy="24" r="24" fill="#F61C0D"/>
<path d="M33.354 12H14.646C10.9755 12 8 15.1537 8 19.044V28.956C8 32.8463 10.9755 36 14.646 36H33.354C37.0245 36 40 32.8463 40 28.956V19.044C40 15.1537 37.0245 12 33.354 12ZM28.8594 24.4823L20.109 28.9056C19.8759 29.0234 19.6065 28.8432 19.6065 28.5695V19.4464C19.6065 19.1687 19.8829 18.9888 20.1166 19.1143L28.8669 23.8141C29.1271 23.9538 29.1226 24.3492 28.8594 24.4823Z" fill="white"/>
</svg>
