<svg width="80" height="80" viewBox="0 0 80 80" fill="none" xmlns="http://www.w3.org/2000/svg">
<g opacity="0.6" clip-path="url(#clip0)">
<path d="M78.7833 12.2406H1.20853C1.20037 12.2406 1.1922 12.2406 1.18404 12.2406C1.15954 12.2406 1.13504 12.2406 1.11871 12.2406C1.10238 12.2406 1.07788 12.2406 1.06155 12.2488C1.04522 12.2488 1.02072 12.2569 1.00439 12.2569C0.979892 12.2569 0.96356 12.2651 0.939063 12.2733C0.922731 12.2733 0.9064 12.2814 0.890068 12.2896C0.865571 12.2978 0.849239 12.2978 0.824742 12.3059C0.808411 12.3141 0.792079 12.3141 0.775748 12.3223C0.759416 12.3304 0.734919 12.3386 0.718587 12.3468C0.702256 12.3549 0.685924 12.3631 0.669593 12.3713C0.653261 12.3794 0.63693 12.3876 0.620598 12.3957C0.604267 12.4039 0.579769 12.4202 0.563438 12.4284C0.547106 12.4366 0.530775 12.4447 0.522609 12.4611C0.506277 12.4774 0.489946 12.4856 0.465449 12.5019C0.449117 12.5101 0.440951 12.5264 0.42462 12.5346C0.408288 12.5509 0.391957 12.5672 0.375625 12.5754C0.359294 12.5917 0.351128 12.5999 0.334796 12.6162C0.318465 12.6326 0.310299 12.6489 0.293967 12.6571C0.277636 12.6734 0.26947 12.6897 0.253139 12.706C0.244973 12.7142 0.236807 12.7224 0.236807 12.7305C0.228641 12.7387 0.228641 12.7469 0.220476 12.7469C0.204144 12.7632 0.195978 12.7877 0.179647 12.804C0.171481 12.8204 0.163315 12.8367 0.15515 12.8449C0.146984 12.8612 0.130652 12.8857 0.122486 12.902C0.114321 12.9184 0.106155 12.9347 0.0979892 12.951C0.0898234 12.9674 0.0816576 12.9918 0.0734919 13.0082C0.0653261 13.0245 0.0571603 13.0408 0.0571603 13.0653C0.0489946 13.0817 0.0489946 13.1062 0.0408288 13.1225C0.0326631 13.1388 0.0326631 13.1633 0.0244973 13.1797C0.0244973 13.196 0.0163315 13.2123 0.0163315 13.2368C0.0163315 13.2613 0.00816576 13.2777 0.00816576 13.3021C0.00816576 13.3185 0.00816576 13.3348 0 13.3511C0 13.3756 0 13.4001 0 13.4246C0 13.4328 0 13.441 0 13.4491V58.8099C0 59.2835 0.277636 59.7245 0.710421 59.9205C1.14321 60.1246 1.65765 60.0512 2.01694 59.7409L9.25998 53.592H12.1507C12.2078 53.1837 12.2895 52.7754 12.3875 52.3754C12.461 52.0651 12.5426 51.763 12.6406 51.4608C12.6733 51.3547 12.7059 51.2485 12.7386 51.1505H10.0357C10.0276 50.0645 10.0112 48.9948 9.99489 47.9414L11.3341 46.6022L13.6858 48.9539C14.0778 48.2108 14.5432 47.5168 15.0577 46.8553L13.0489 44.871L15.9396 41.9805L17.9892 44.0301C18.6751 43.5401 19.4019 43.1073 20.1694 42.748L17.6707 40.2493L20.7492 37.1708L23.8277 40.2493L22.0721 42.005C23.0111 41.7109 23.991 41.515 25.0036 41.4251C25.3873 41.3925 25.7793 41.368 26.1713 41.368C26.2203 41.368 26.2693 41.368 26.3183 41.368C27.0858 41.368 27.8453 41.4333 28.5883 41.5476L27.29 40.2491L30.3684 37.1707L33.4469 40.2491L31.4218 42.2906C32.2384 42.6009 33.0141 42.9764 33.749 43.4255L35.1944 41.9803L38.2729 45.0587L37.097 46.2346C37.6441 46.8552 38.134 47.5166 38.5668 48.227L40.004 46.7898L43.0825 49.8682L41.8005 51.1503H39.9306C40.0939 51.632 40.2246 52.1138 40.3389 52.6201C40.3552 52.6936 40.3715 52.7671 40.3879 52.8406C40.4369 53.0937 40.4859 53.3469 40.5186 53.6H70.7401L77.9831 59.7488C78.2118 59.9366 78.4894 60.0428 78.7752 60.0428C78.9467 60.0428 79.1263 60.002 79.2896 59.9285C79.7224 59.7244 80.0001 59.2916 80.0001 58.8179V13.4655C80.0082 12.7877 79.4611 12.2406 78.7833 12.2406ZM69.9724 51.1585H67.0898L65.62 49.6887L68.6985 46.6102L70.0132 47.925C69.9969 48.9783 69.9806 50.0561 69.9724 51.1585ZM46.5612 49.8765L49.6396 46.7981L52.7181 49.8765L51.4361 51.1585H47.835L46.5612 49.8765ZM17.5319 14.6903L19.0262 16.1847L15.9477 19.2632L12.8692 16.1847L14.3636 14.6903H17.5319ZM27.1593 14.6903L28.6537 16.1847L25.5753 19.2632L22.4968 16.1847L23.9911 14.6903H27.1593ZM36.7868 14.6903L38.2811 16.1847L35.2026 19.2632L32.1241 16.1847L33.6185 14.6903H36.7868ZM46.4141 14.6903L47.9085 16.1847L44.83 19.2632L41.7515 16.1847L43.2459 14.6903H46.4141ZM56.0416 14.6903L57.536 16.1847L54.4493 19.255L51.3708 16.1765L52.8652 14.6822L56.0416 14.6903ZM65.6691 14.6903L67.1634 16.1847L64.0849 19.255L61.0064 16.1765L62.5008 14.6822L65.6691 14.6903ZM40.0122 24.0728L36.9338 20.9943L40.0122 17.9158L43.0907 20.9943L40.0122 24.0728ZM44.8218 22.7254L47.9003 25.8039L44.8218 28.8824L41.7434 25.8038L44.8218 22.7254ZM71.2789 31.3157L68.8946 33.7001L65.8161 30.6216L68.8946 27.5431L71.4585 30.1072C71.4014 30.5074 71.3361 30.9074 71.2789 31.3157ZM59.2671 33.7002L56.1886 30.6216L59.2671 27.5431L62.3456 30.6216L59.2671 33.7002ZM64.0849 32.3529L67.1634 35.4314L64.0849 38.518L61.0064 35.4394L64.0849 32.3529ZM64.0849 28.8906L61.0064 25.8121L64.0849 22.7336L67.1634 25.8121L64.0849 28.8906ZM59.2671 24.0728L56.1886 20.9943L59.2671 17.9158L62.3456 20.9943L59.2671 24.0728ZM57.536 25.8038L54.4493 28.8905L51.3708 25.812L54.4493 22.7335L57.536 25.8038ZM49.6396 24.0728L46.5612 20.9943L49.6396 17.9158L52.7181 20.9943L49.6396 24.0728ZM49.6396 27.5351L52.7181 30.6136L49.6396 33.7002L46.5612 30.6216L49.6396 27.5351ZM54.4493 32.3529L57.5278 35.4314L54.4493 38.518L51.3708 35.4394L54.4493 32.3529ZM56.1886 40.2491L59.2671 37.1707L62.3456 40.2491L59.2671 43.3276L56.1886 40.2491ZM57.536 45.0587L54.4493 48.1454L51.3708 45.0669L54.4493 41.9885L57.536 45.0587ZM64.0849 41.9803L66.9756 44.8709L63.8971 47.9494L61.0064 45.0587L64.0849 41.9803ZM65.8161 40.2491L68.8946 37.1707L70.4623 38.7385C70.3889 39.6693 70.3236 40.6166 70.2664 41.5802L68.6986 43.148L65.8161 40.2491ZM70.6256 25.8038L72.757 23.6726C72.4793 24.775 72.2179 25.9427 71.973 27.1594L70.6256 25.8038ZM68.8946 24.0728L65.8161 20.9943L68.8946 17.9158L71.973 20.9943L68.8946 24.0728ZM33.4633 20.9943L30.3848 24.0728L27.3063 20.9943L30.3848 17.9158L33.4633 20.9943ZM23.8359 20.9943L20.7574 24.0728L17.6789 20.9943L20.7574 17.9158L23.8359 20.9943ZM7.21854 23.6318L9.39063 25.8038L8.01061 27.1839C7.77381 25.9427 7.50434 24.7505 7.21854 23.6318ZM8.04328 20.9943L11.1218 17.9158L14.2003 20.9943L11.1218 24.0728L8.04328 20.9943ZM9.39879 16.1765L6.3203 19.255L5.63438 18.5691C4.96478 16.8624 4.31152 15.6049 3.73992 14.6903H7.90446L9.39879 16.1765ZM8.71287 31.2831C8.65571 30.8911 8.59855 30.5074 8.54139 30.1317L11.1299 27.5431L14.2084 30.6216L11.1299 33.7001L8.71287 31.2831ZM12.8611 25.8038L15.9396 22.7254L19.0181 25.8038L15.9396 28.8823L12.8611 25.8038ZM20.7574 27.5351L23.8359 30.6136L20.7574 33.7002L17.6789 30.6216L20.7574 27.5351ZM22.4885 25.8038L25.567 22.7254L28.6455 25.8038L25.567 28.8823L22.4885 25.8038ZM30.3848 27.5351L33.4633 30.6136L30.3848 33.7002L27.3063 30.6217L30.3848 27.5351ZM32.1159 25.8038L35.1944 22.7254L38.2729 25.8038L35.1944 28.8823L32.1159 25.8038ZM40.0122 27.5351L43.0907 30.6136L40.0122 33.7002L36.9338 30.6216L40.0122 27.5351ZM44.8218 32.3529L47.9003 35.4314L44.8218 38.518L41.7434 35.4394L44.8218 32.3529ZM49.6396 37.1625L52.7181 40.2409L49.6396 43.3194L46.5612 40.2409L49.6396 37.1625ZM56.1886 49.8765L59.2671 46.7981L62.1578 49.6887L60.688 51.1585H57.4625L56.1886 49.8765ZM74.341 18.6262L73.7041 19.2632L70.6256 16.1847L72.12 14.6903H76.1294H76.2519C76.0396 15.0333 75.811 15.4334 75.5742 15.8825C75.1822 16.6338 74.7657 17.5402 74.341 18.6262ZM2.4334 56.1724V17.3769C2.87435 18.2669 3.35613 19.3938 3.84607 20.8228C6.86741 29.6827 7.54517 42.4539 7.56966 51.8119L2.4334 56.1724ZM11.3177 43.1397L9.71726 41.5393C9.6601 40.592 9.59477 39.6693 9.52945 38.7629L11.1299 37.1624L14.2084 40.2409L11.3177 43.1397ZM15.9396 38.518L12.8611 35.4394L15.9396 32.3609L19.0181 35.4394L15.9396 38.518ZM25.567 38.518L22.4885 35.4394L25.567 32.3609L28.6455 35.4394L25.567 38.518ZM32.1159 35.4314L35.1944 32.3529L38.2729 35.4314L35.1944 38.518L32.1159 35.4314ZM36.9256 40.2491L40.004 37.1707L43.0825 40.2491L40.004 43.3276L36.9256 40.2491ZM41.7434 45.0587L44.8218 41.9803L47.9003 45.0587L44.8218 48.1372L41.7434 45.0587ZM77.5584 56.1724L72.4222 51.8119C72.4467 42.6825 73.1 30.1889 75.9825 21.3291C76.5215 19.6633 77.0686 18.3731 77.5585 17.385V56.1724H77.5584Z" fill="#0C2737"/>
<path d="M38.0116 52.8407C37.8728 52.2608 37.6849 51.6975 37.4645 51.1584C37.293 50.7338 37.097 50.3255 36.8765 49.9336C36.8357 49.8519 36.7867 49.7785 36.7459 49.6969C36.3702 49.0518 35.9456 48.4474 35.4639 47.8921C34.582 46.8714 33.5367 45.9977 32.3609 45.3118C32.2547 45.2546 32.1567 45.1974 32.0506 45.1402C31.2748 44.7238 30.45 44.3808 29.5845 44.1441C28.8578 43.9399 28.0983 43.8011 27.3226 43.7358C26.996 43.7112 26.6693 43.6949 26.3345 43.6949C25.371 43.6949 24.4401 43.8092 23.5419 44.0216C22.9947 44.1522 22.464 44.3155 21.9414 44.5197C21.133 44.8382 20.3735 45.2383 19.6631 45.7119C18.5199 46.4714 17.5155 47.4267 16.6908 48.5291C16.1845 49.1987 15.7517 49.9255 15.4006 50.7012C15.3271 50.8563 15.2618 51.0115 15.1965 51.1667C15.025 51.5832 14.878 52.0078 14.7555 52.4406C14.6493 52.8243 14.5595 53.2163 14.486 53.6164C14.3635 54.3023 14.2982 55.0046 14.2982 55.7313C14.2982 62.3782 19.6876 67.7594 26.3264 67.7594C32.9733 67.7513 38.3627 62.3619 38.3627 55.7149C38.3627 54.9964 38.2974 54.2859 38.1749 53.6001C38.1258 53.3469 38.0769 53.0938 38.0116 52.8407ZM35.913 55.7149C35.913 57.6993 35.3169 59.5855 34.2063 61.1778L31.2177 61.6188C31.0625 61.6433 30.8829 61.7821 30.8175 61.9291L29.6335 64.7136C28.5883 65.0974 27.4778 65.2935 26.3264 65.2935C25.175 65.2935 24.0645 65.0893 23.0192 64.7136L21.8352 61.9291C21.7699 61.7821 21.5984 61.6433 21.4351 61.6188L18.4464 61.1778C17.3359 59.5855 16.7398 57.6992 16.7398 55.7149C16.7398 55.6824 16.7398 55.6496 16.7398 55.6088L18.92 53.6L18.9527 53.5673C19.067 53.4612 19.1405 53.249 19.1078 53.0857L18.9935 52.4977L18.7322 51.1504L18.5852 50.4236L18.5281 50.1296C18.8302 49.7131 19.165 49.3131 19.5406 48.9374C20.1122 48.3658 20.7492 47.8758 21.4269 47.4675C22.0557 47.0919 22.7334 46.7898 23.4275 46.5693L24.7096 47.288L25.7956 47.9004L26.0652 48.0474C26.2039 48.129 26.4326 48.129 26.5713 48.0474L29.2089 46.5693C29.5518 46.6755 29.8866 46.8061 30.2133 46.945C30.4256 47.043 30.6461 47.1491 30.8502 47.2553C31.6668 47.6962 32.4262 48.2515 33.0958 48.9293C33.3163 49.1498 33.5204 49.3702 33.7082 49.607C33.847 49.7704 33.9777 49.9419 34.1002 50.1215L34.0348 50.4481L33.896 51.1422L33.5776 52.7508L33.5122 53.0857C33.4796 53.2407 33.553 53.4531 33.6673 53.5673L33.7 53.6L35.8801 55.6088C35.913 55.6496 35.913 55.6824 35.913 55.7149Z" fill="#0C2737"/>
<path d="M30.7278 54.1063L30.0419 53.6081L28.7598 52.6773L26.6694 51.1584L26.5632 51.0767C26.4408 50.9869 26.2366 50.9869 26.106 51.0686C26.106 51.0686 26.0977 51.0686 26.0977 51.0767L25.9916 51.1584L25.4853 51.5258L24.0155 52.5956L22.6192 53.6081L21.9333 54.1063C21.8026 54.1961 21.7373 54.4003 21.7863 54.5472L23.3786 59.4466C23.4276 59.6018 23.5991 59.7242 23.7542 59.7242H28.9068C29.0619 59.7242 29.2334 59.6018 29.2824 59.4466L30.8748 54.5472C30.9238 54.3921 30.8583 54.1961 30.7278 54.1063Z" fill="#0C2737"/>
</g>
<defs>
<clipPath id="clip0">
<rect width="80" height="80.0001" fill="white"/>
</clipPath>
</defs>
</svg>
