<svg width="64" height="64" viewBox="0 0 64 64" fill="none" xmlns="http://www.w3.org/2000/svg">
<g opacity="0.7" clip-path="url(#clip0)">
<path d="M60.6968 36.7017C62.3384 33.8809 63.4316 30.7041 63.8301 27.3174C63.8315 27.3066 63.8325 27.2959 63.834 27.2852C63.9424 26.3525 64 25.4043 64 24.4429C64 18.0942 61.5664 12.3037 57.584 7.95361C57.5205 7.86475 57.4458 7.78369 57.3608 7.71387C54.7739 4.9624 51.5591 2.80762 47.9463 1.4834C47.8813 1.4541 47.814 1.42969 47.7451 1.41211C45.1841 0.499023 42.4282 0 39.5571 0C36.355 0 33.2949 0.620117 30.4897 1.74463C30.4136 1.76758 30.3403 1.79785 30.2695 1.83496C26.8203 3.25684 23.7656 5.44629 21.3184 8.18896C21.2383 8.25977 21.167 8.33936 21.1069 8.42725C17.376 12.7202 15.1143 18.3223 15.1143 24.4429C15.1143 25.3604 15.167 26.2661 15.2661 27.1577C15.2671 27.1689 15.2686 27.1797 15.27 27.1904C15.4517 28.8086 15.792 30.3789 16.2749 31.8862L3.14453 45.0166C2.65625 45.5049 2.65625 46.2964 3.14453 46.7847C3.38867 47.0288 3.7085 47.1509 4.02832 47.1509C4.34814 47.1509 4.66797 47.0288 4.91211 46.7847L17.2549 34.4424C17.5986 35.2056 17.9805 35.9487 18.3979 36.668C18.436 36.7539 18.4844 36.8345 18.5405 36.9092C21.6392 42.1128 26.6138 46.0737 32.5249 47.853L23.7192 56.6582C23.2314 57.1465 23.2314 57.938 23.7192 58.4263C23.9634 58.6704 24.2837 58.7925 24.6035 58.7925C24.9233 58.7925 25.2432 58.6704 25.4873 58.4263L35.3853 48.5278C36.7417 48.7622 38.1353 48.8857 39.5571 48.8857C48.4609 48.8857 56.2671 44.0991 60.5405 36.9648C60.603 36.8838 60.6558 36.7959 60.6968 36.7017ZM49.8813 36.751L45.4341 29.9072L47.7988 22.6294L53.4194 21.3672L54.8818 21.0391L61.272 27.6011C60.8838 30.2827 60.0088 32.8091 58.7393 35.0874L49.8813 36.751ZM33.6807 29.9072L29.2354 36.7476L20.3501 35.0425C19.0771 32.7451 18.2051 30.1963 17.8271 27.4912L24.2256 21.0371L31.3159 22.6294L32.8916 27.4795L33.6807 29.9072ZM21.3628 12.1895L22.4902 19.2368L17.6182 24.1514C17.6763 19.728 19.0479 15.6157 21.3628 12.1895ZM35.9619 28.8384L33.7539 22.043L39.5342 17.8438L45.3145 22.0435L43.1064 28.8384H35.9619ZM61.4976 24.2495L56.6001 19.2202L57.4658 11.7769C59.9707 15.3086 61.457 19.6094 61.4976 24.2495ZM55.2573 9.12988L54.1509 18.6411L51.4614 19.2446L47.1074 20.2222L40.8301 15.6616V8.89453L47.6143 4.03223C50.5151 5.18164 53.1133 6.93262 55.2573 9.12988ZM44.6323 3.09375L39.5044 6.76904L33.7876 3.27148C35.627 2.76953 37.561 2.5 39.5571 2.5C41.3037 2.5 43.0029 2.70605 44.6323 3.09375ZM30.7539 4.3457L38.2842 8.95312V15.6616L33.8564 18.8784L32.0073 20.2222L24.9253 18.6323L23.4702 9.53711C25.5039 7.34375 27.979 5.56592 30.7539 4.3457ZM22.2832 37.959L29.0278 39.2539L32.4629 45.208C28.4048 43.8179 24.8794 41.2695 22.2832 37.959ZM35.8467 46.0703L31.2905 38.1729L35.7319 31.3384H43.3823L47.8237 38.1729L43.2686 46.0698C42.0615 46.2764 40.8218 46.3853 39.5571 46.3853C38.2925 46.3857 37.0532 46.2769 35.8467 46.0703ZM46.6519 45.208L50.085 39.2563L56.8037 37.9941C54.2104 41.2876 50.6958 43.8228 46.6519 45.208Z" fill="#0C2737"/>
<path d="M17.2153 45.0166L0.366211 61.8662C-0.12207 62.3545 -0.12207 63.146 0.366211 63.6343C0.610351 63.8779 0.930176 64 1.25 64C1.56982 64 1.88965 63.8779 2.13379 63.6338L18.9834 46.7847C19.4712 46.2964 19.4712 45.5049 18.9834 45.0166C18.4951 44.5288 17.7036 44.5288 17.2153 45.0166Z" fill="#0C2737"/>
<path d="M20.7686 60.1265C20.4399 60.1265 20.1177 60.2603 19.8853 60.4927C19.6528 60.7251 19.5186 61.0474 19.5186 61.3774C19.5186 61.7061 19.6523 62.0273 19.8853 62.2603C20.1177 62.4941 20.4399 62.6274 20.7686 62.6274C21.0977 62.6274 21.4199 62.4941 21.6523 62.2603C21.8848 62.0278 22.0186 61.7061 22.0186 61.3774C22.0186 61.0474 21.8853 60.7251 21.6523 60.4927C21.4199 60.2603 21.0977 60.1265 20.7686 60.1265Z" fill="#0C2737"/>
</g>
<defs>
<clipPath id="clip0">
<rect width="64" height="64" fill="white"/>
</clipPath>
</defs>
</svg>
