<svg width="64" height="64" viewBox="0 0 64 64" fill="none" xmlns="http://www.w3.org/2000/svg">
<g opacity="0.7">
<path d="M55.2048 43.5126C55.8952 43.5126 56.4548 42.9529 56.4548 42.2626C56.4548 41.5722 55.8952 41.0126 55.2048 41.0126C54.5145 41.0126 53.9548 41.5722 53.9548 42.2626C53.9548 42.9529 54.5145 43.5126 55.2048 43.5126Z" fill="#0C2737"/>
<path d="M7.62063 43.5126C8.31099 43.5126 8.87063 42.9529 8.87063 42.2626C8.87063 41.5722 8.31099 41.0126 7.62063 41.0126C6.93028 41.0126 6.37064 41.5722 6.37064 42.2626C6.37064 42.9529 6.93028 43.5126 7.62063 43.5126Z" fill="#0C2737"/>
<path d="M61.7873 61.4995H51.0528L50.9871 30.778C50.9856 30.0884 50.4263 29.5305 49.737 29.5305C49.7361 29.5305 49.7351 29.5305 49.7343 29.5305C49.0438 29.532 48.4853 30.0929 48.4868 30.7834L48.5524 61.4995H44.9213L44.8891 47.831C44.8875 47.1415 44.3281 46.5838 43.639 46.5838C43.638 46.5838 43.637 46.5838 43.636 46.5838C42.9455 46.5854 42.387 47.1464 42.3888 47.8369L42.4209 61.4995H39.3853V44.9545C42.924 44.6416 45.7064 41.7336 45.7064 38.2025V26.087C45.7064 24.1605 45.2976 22.2721 44.5158 20.5281C46.9846 20.693 49.2828 21.6975 51.0508 23.4048C52.9855 25.273 54.0541 27.7572 54.0596 30.4011L54.0825 37.5156C54.0848 38.2048 54.644 38.7619 55.3326 38.7619C55.334 38.7619 55.3354 38.7619 55.3368 38.7619C56.0271 38.7596 56.5851 38.1981 56.583 37.5076L56.5601 30.3945C56.553 27.0695 55.2133 23.9484 52.7876 21.6061C51.4021 20.2682 49.7565 19.2774 47.963 18.6763C49.2334 17.4671 50.0261 15.7609 50.0221 13.8729C50.0143 10.2301 47.0484 7.272 43.4073 7.272C43.4025 7.272 43.3976 7.272 43.393 7.272C42.3323 7.27437 41.2775 7.53412 40.3429 8.02325C39.7311 8.3435 39.4948 9.099 39.815 9.71075C40.1354 10.3225 40.891 10.5589 41.5025 10.2386C42.0908 9.93075 42.7286 9.77388 43.3985 9.77238C45.6709 9.77125 47.517 11.6094 47.5219 13.8781C47.5268 16.1469 45.6849 17.9966 43.4161 18.0015C43.3623 18.0016 43.3096 18.0063 43.2578 18.013C43.1911 18.0158 43.1246 18.0181 43.0579 18.0219C41.2516 15.5499 38.7159 13.7566 35.8279 12.8466C37.3611 11.5014 38.332 9.52975 38.332 7.33437C38.3315 3.29012 35.0415 0 30.9974 0C26.9531 0 23.663 3.29012 23.663 7.33437C23.663 9.63612 24.7297 11.6926 26.3939 13.0382C23.7429 13.995 21.4196 15.7089 19.7324 18.0147C19.5344 18.0059 19.3366 18.0006 19.1399 18.0006C19.0464 18.0006 18.9531 18.0021 18.86 18.0041C18.8371 18.0029 18.8146 18.0006 18.7915 18.0006C16.5227 18.0006 14.677 16.1549 14.677 13.8861C14.677 11.6174 16.5227 9.77162 18.7915 9.77162C19.4772 9.77162 20.1556 9.94338 20.7531 10.2683C21.3597 10.5979 22.1187 10.3736 22.4487 9.767C22.7785 9.16038 22.5541 8.40125 21.9475 8.07137C20.9845 7.54775 19.8931 7.271 18.7914 7.271C15.1439 7.271 12.1764 10.2385 12.1764 13.886C12.1764 15.8722 13.0576 17.6555 14.4481 18.8691C9.7215 20.6917 6.37037 25.1831 6.37037 30.4216V37.5116C6.37037 38.2021 6.93012 38.7619 7.62062 38.7619C8.31112 38.7619 8.87087 38.2021 8.87087 37.5116V30.4216C8.87087 25.2366 13.0104 20.9709 18.2639 20.5397C17.4855 22.2804 17.0784 24.1645 17.0784 26.087V38.2025C17.0784 41.8035 19.9718 44.7566 23.6103 44.9701V61.4994H20.2042V47.8335C20.2042 47.143 19.6445 46.5832 18.954 46.5832C18.2635 46.5832 17.7037 47.143 17.7037 47.8335V61.4995H14.6305V30.7932C14.6305 30.1027 14.0707 29.543 13.3802 29.543C12.6897 29.543 12.13 30.1027 12.13 30.7932V61.4995H2.21274C1.52224 61.4995 0.962494 62.0592 0.962494 62.7497C0.962494 63.4402 1.52212 64 2.21274 64H61.7874C62.4779 64 63.0376 63.4402 63.0376 62.7497C63.0374 62.0592 62.4778 61.4995 61.7873 61.4995ZM26.1634 7.33437C26.1634 4.669 28.3319 2.5005 30.9973 2.5005C33.6626 2.5005 35.831 4.669 35.831 7.33437C35.831 9.99975 33.6625 12.1683 30.9973 12.1683C28.332 12.1683 26.1634 9.99975 26.1634 7.33437ZM38.1349 25.2582C37.4444 25.2582 36.8846 25.818 36.8846 26.5085V61.4995H32.4319V44.1061C32.4319 43.4156 31.8721 42.8559 31.1816 42.8559C30.4911 42.8559 29.9314 43.4156 29.9314 44.1061V61.4996H26.1108V26.5085C26.1108 25.818 25.551 25.2582 24.8605 25.2582C24.17 25.2582 23.6103 25.818 23.6103 26.5085V42.4636C21.3519 42.2586 19.5787 40.4263 19.5787 38.2026V26.0871C19.5787 23.9234 20.208 21.8173 21.3985 19.9966C23.58 16.6605 27.316 14.6687 31.3923 14.6687C35.4753 14.6687 39.2146 16.6656 41.3949 20.0105C42.5795 21.828 43.2058 23.9293 43.2058 26.0871V38.2026C43.2058 40.3566 41.542 42.1432 39.3851 42.4395V26.5085C39.3853 25.818 38.8254 25.2582 38.1349 25.2582Z" fill="#0C2737"/>
</g>
</svg>
