<svg width="24" height="24" viewBox="0 0 24 24" fill="none" xmlns="http://www.w3.org/2000/svg">
<path d="M8.55005 11.7891C7.19536 11.7891 6.08911 12.8906 6.08911 14.25C6.08911 15.6094 7.19067 16.7109 8.55005 16.7109C9.90474 16.7109 11.011 15.6094 11.011 14.25C11.011 12.8906 9.90474 11.7891 8.55005 11.7891ZM8.55005 15.5578C7.82817 15.5578 7.23755 14.9719 7.23755 14.2453C7.23755 13.5187 7.82349 12.9328 8.55005 12.9328C9.27192 12.9328 9.86255 13.5187 9.86255 14.2453C9.86255 14.9719 9.27192 15.5578 8.55005 15.5578Z" fill="#1DA775" stroke="#1DA775" stroke-width="0.5"/>
<path d="M17.9109 14.2451C17.9109 12.8904 16.8093 11.7842 15.45 11.7842C14.0953 11.7842 12.989 12.8857 12.989 14.2451C12.989 15.6045 14.0906 16.7061 15.45 16.7061C16.8093 16.7061 17.9109 15.5998 17.9109 14.2451ZM15.45 15.5576C14.7281 15.5576 14.1375 14.9717 14.1375 14.2451C14.1375 13.5186 14.7234 12.9326 15.45 12.9326C16.1718 12.9326 16.7625 13.5186 16.7625 14.2451C16.7625 14.9717 16.1765 15.5576 15.45 15.5576Z" fill="#1DA775" stroke="#1DA775" stroke-width="0.5"/>
<path d="M21.9281 8.1373C21.5344 5.79355 19.5984 4.05918 17.2125 3.91387L17.1141 3.89512C17.0813 3.89043 17.0484 3.88574 17.0156 3.88574H7.10156C4.60313 3.88574 2.48906 5.67168 2.07656 8.12324L0.5625 16.2373C0.515625 16.4576 0.492188 16.6779 0.492188 16.8982C0.492188 18.6701 1.93125 20.1092 3.70313 20.1092C4.77188 20.1092 5.77031 19.5795 6.35625 18.7076L7.0875 17.6951C7.275 17.4373 7.21406 17.0811 6.95625 16.8936C6.69844 16.7061 6.34219 16.767 6.15469 17.0248L5.41406 18.0514C5.02969 18.6232 4.3875 18.9654 3.70313 18.9654C2.56406 18.9654 1.64063 18.0373 1.64063 16.9029C1.64063 16.7623 1.65469 16.617 1.6875 16.4623L3.20156 8.32949C3.52031 6.42168 5.16094 5.03887 7.09688 5.03887H16.9688L17.0484 5.05293C17.0719 5.05762 17.0906 5.05762 17.1141 5.0623C18.9422 5.16074 20.4891 6.53887 20.7938 8.33887L22.3125 16.4717C22.3406 16.6123 22.3547 16.7576 22.3547 16.8982C22.3547 18.0373 21.4266 18.9607 20.2922 18.9607C19.6031 18.9607 18.9656 18.6186 18.5672 18.0326L17.7797 16.9451C17.5922 16.6873 17.2359 16.6311 16.9781 16.8139C16.7203 17.0014 16.6641 17.3576 16.8469 17.6154L17.6203 18.6889C18.2203 19.5748 19.2141 20.1045 20.2828 20.1045C22.0547 20.1045 23.4938 18.6654 23.4938 16.8936C23.4938 16.6732 23.4703 16.4482 23.4281 16.242L21.9281 8.1373Z" fill="#1DA775" stroke="#1DA775" stroke-width="0.5"/>
<path d="M14.9766 9.30039C15.4064 9.30039 15.7547 8.95201 15.7547 8.52227C15.7547 8.09252 15.4064 7.74414 14.9766 7.74414C14.5469 7.74414 14.1985 8.09252 14.1985 8.52227C14.1985 8.95201 14.5469 9.30039 14.9766 9.30039Z" fill="#1DA775" stroke="#1DA775" stroke-width="0.5"/>
<path d="M18.1592 9.30039C18.589 9.30039 18.9374 8.95201 18.9374 8.52227C18.9374 8.09252 18.589 7.74414 18.1592 7.74414C17.7295 7.74414 17.3811 8.09252 17.3811 8.52227C17.3811 8.95201 17.7295 9.30039 18.1592 9.30039Z" fill="#1DA775" stroke="#1DA775" stroke-width="0.5"/>
<path d="M7.48594 6.21484C7.16719 6.21484 6.90937 6.47266 6.90937 6.79141V7.82734H5.87344C5.55469 7.82734 5.29688 8.08516 5.29688 8.40391C5.29688 8.72266 5.55469 8.98047 5.87344 8.98047H6.90937V10.0164C6.90937 10.3352 7.16719 10.593 7.48594 10.593C7.80469 10.593 8.0625 10.3352 8.0625 10.0164V8.98047H9.09844C9.41719 8.98047 9.675 8.72266 9.675 8.40391C9.675 8.08516 9.41719 7.82734 9.09844 7.82734H8.0625V6.79141C8.0625 6.47266 7.80469 6.21484 7.48594 6.21484Z" fill="#1DA775" stroke="#1DA775" stroke-width="0.5"/>
<path d="M16.5655 10.8883C16.9952 10.8883 17.3436 10.5399 17.3436 10.1102C17.3436 9.68041 16.9952 9.33203 16.5655 9.33203C16.1357 9.33203 15.7874 9.68041 15.7874 10.1102C15.7874 10.5399 16.1357 10.8883 16.5655 10.8883Z" fill="#1DA775" stroke="#1DA775" stroke-width="0.5"/>
<path d="M16.5655 7.70664C16.9952 7.70664 17.3436 7.35826 17.3436 6.92852C17.3436 6.49877 16.9952 6.15039 16.5655 6.15039C16.1357 6.15039 15.7874 6.49877 15.7874 6.92852C15.7874 7.35826 16.1357 7.70664 16.5655 7.70664Z" fill="#1DA775" stroke="#1DA775" stroke-width="0.5"/>
</svg>
