<svg width="24" height="24" viewBox="0 0 24 24" fill="none" xmlns="http://www.w3.org/2000/svg">
<g clip-path="url(#clip0)">
<path d="M23.1429 2H14.5714C14.3441 2 14.1261 2.09161 13.9653 2.25469C13.8046 2.41776 13.7143 2.63894 13.7143 2.86957C13.7143 3.33081 13.5337 3.77317 13.2122 4.09932C12.8907 4.42547 12.4547 4.6087 12 4.6087C11.5453 4.6087 11.1093 4.42547 10.7878 4.09932C10.4663 3.77317 10.2857 3.33081 10.2857 2.86957C10.2857 2.63894 10.1954 2.41776 10.0347 2.25469C9.87392 2.09161 9.6559 2 9.42857 2H0.857143C0.629814 2 0.411797 2.09161 0.251051 2.25469C0.0903058 2.41776 0 2.63894 0 2.86957V8.08696C0 8.31758 0.0903058 8.53876 0.251051 8.70183C0.411797 8.86491 0.629814 8.95652 0.857143 8.95652H4.28571V21.1304C4.28571 21.3611 4.37602 21.5822 4.53677 21.7453C4.69751 21.9084 4.91553 22 5.14286 22H18.8571C19.0845 22 19.3025 21.9084 19.4632 21.7453C19.624 21.5822 19.7143 21.3611 19.7143 21.1304V8.95652H23.1429C23.3702 8.95652 23.5882 8.86491 23.7489 8.70183C23.9097 8.53876 24 8.31758 24 8.08696V2.86957C24 2.63894 23.9097 2.41776 23.7489 2.25469C23.5882 2.09161 23.3702 2 23.1429 2ZM22.2857 7.21739H18.8571C18.6298 7.21739 18.4118 7.30901 18.2511 7.47208C18.0903 7.63516 18 7.85633 18 8.08696V20.2609H6V8.08696C6 7.85633 5.90969 7.63516 5.74895 7.47208C5.5882 7.30901 5.37019 7.21739 5.14286 7.21739H1.71429V3.73913H8.68029C8.8703 4.48577 9.2995 5.14719 9.90041 5.61941C10.5013 6.09163 11.2399 6.34788 12 6.34788C12.7601 6.34788 13.4987 6.09163 14.0996 5.61941C14.7005 5.14719 15.1297 4.48577 15.3197 3.73913H22.2857V7.21739Z" fill="#1DA775" stroke="#1DA775" stroke-width="0.5"/>
</g>
<defs>
<clipPath id="clip0">
<rect width="24" height="24" fill="white"/>
</clipPath>
</defs>
</svg>
